#!OML:ASF C:\ViconDB\ViconDB\414\Spring2016\042216\male.ASF
:FULLY-SPECIFIED
:DEGREES
653
root 45.0589 17.7969 12.2416 -34.9037 88.7628 -36.5668
lowerback -3.11519 -1.7157 3.78193
upperback -1.46165 -2.37078 -1.06811
thorax 0.0436261 -1.20305 -3.28739
lowerneck -3.73578 2.9226 -2.09807
upperneck 9.66164 4.0655 1.06339
head 3.72676 2.01618 0.896342
rclavicle 1.36167e-014 6.16232e-015
rhumerus -32.2816 -5.99336 -92.7334
rradius 25.9757
rwrist 33.817
rhand 14.881 -17.6717
rfingers 7.12502
rthumb 39.7396 -42.9758
lclavicle 1.36167e-014 6.16232e-015
lhumerus -37.0715 15.4823 85.4471
lradius 31.104
lwrist -17.9393
lhand -6.51352 12.3441
lfingers 7.12502
lthumb 19.3386 41.4025
rfemur -8.3671 3.95636 21.8388
rtibia 23.9067
rfoot -18.1881 -5.17574
rtoes -8.00396
lfemur -7.09348 -2.52375 -19.6042
ltibia 24.9294
lfoot -26.3852 9.8081
ltoes -10.3808
654
root 45.0574 17.7906 12.2378 -37.7662 88.7987 -39.4209
lowerback -3.13581 -1.71088 3.90089
upperback -1.45047 -2.36869 -1.07747
thorax 0.0613425 -1.20216 -3.36479
lowerneck -3.7414 2.99561 -2.07263
upperneck 9.71155 4.16448 1.052
head 3.7444 2.06573 0.893323
rclavicle 7.77745e-015 -3.77691e-015
rhumerus -32.2424 -6.02376 -92.7336
rradius 25.9277
rwrist 33.8226
rhand 14.8864 -17.7147
rfingers 7.12502
rthumb 39.7447 -43.0173
lclavicle 7.77745e-015 -3.77691e-015
lhumerus -37.0066 15.5207 85.4287
lradius 31.0326
lwrist -18.0123
lhand -6.53903 12.3494
lfingers 7.12502
lthumb 19.3141 41.4103
rfemur -8.37185 4.08565 21.8575
rtibia 23.9285
rfoot -18.2059 -5.30691
rtoes -7.9045
lfemur -7.04278 -2.61018 -19.5943
ltibia 24.9181
lfoot -26.4052 9.86606
ltoes -10.5052
655
root 45.0567 17.7958 12.2376 -38.1904 88.8874 -39.8555
lowerback -3.15174 -1.7025 3.89833
upperback -1.46351 -2.35749 -1.10074
thorax 0.0569059 -1.19685 -3.38738
lowerneck -3.69835 3.07106 -2.01637
upperneck 9.74894 4.26615 1.01611
head 3.7493 2.11696 0.875594
rclavicle 1.11941e-014 4.96962e-015
rhumerus -32.2466 -5.99036 -92.7687
rradius 25.9629
rwrist 33.593
rhand 14.9767 -17.8966
rfingers 7.12502
rthumb 39.8298 -43.1738
lclavicle 1.11941e-014 4.96962e-015
lhumerus -36.9707 15.5479 85.3978
lradius 30.9419
lwrist -18.2472
lhand -6.48241 12.3196
lfingers 7.12502
lthumb 19.3686 41.375
rfemur -8.38749 4.17719 21.7877
rtibia 23.9353
rfoot -18.2268 -5.43048
rtoes -7.72665
lfemur -7.09204 -2.63317 -19.6486
ltibia 24.9146
lfoot -26.4146 9.77039
ltoes -10.3831
656
root 45.0568 17.7964 12.237 -39.7781 88.9462 -41.4013
lowerback -3.13319 -1.70206 3.90712
upperback -1.46107 -2.35657 -1.09753
thorax 0.0488859 -1.19659 -3.38836
lowerneck -3.68589 3.15141 -1.93569
upperneck 9.83091 4.37938 0.927633
head 3.77762 2.17245 0.838425
rclavicle 7.56624e-015 -7.95139e-015
rhumerus -32.2635 -5.9928 -92.768
rradius 25.9688
rwrist 33.5728
rhand 14.971 -17.9673
rfingers 7.12502
rthumb 39.8244 -43.2461
lclavicle 7.56624e-015 -7.95139e-015
lhumerus -36.924 15.5479 85.4191
lradius 30.839
lwrist -18.3725
lhand -6.47391 12.3558
lfingers 7.12502
lthumb 19.3767 41.4103
rfemur -8.33668 4.05855 21.7696
rtibia 23.9469
rfoot -18.2293 -5.36017
rtoes -7.66566
lfemur -7.07512 -2.47925 -19.6591
ltibia 24.912
lfoot -26.3831 9.58366
ltoes -10.4584
657
root 45.0563 17.7952 12.2371 -40.5049 89.022 -42.12
lowerback -3.15592 -1.70355 3.8798
upperback -1.45496 -2.35873 -1.09877
thorax 0.0688002 -1.19699 -3.3753
lowerneck -3.65186 3.2429 -1.78261
upperneck 9.83341 4.50688 0.768354
head 3.77709 2.23463 0.763986
rclavicle -1.99282e-014 -9.93923e-016
rhumerus -32.2524 -6.02073 -92.7575
rradius 25.9359
rwrist 33.755
rhand 14.7137 -17.9044
rfingers 7.12502
rthumb 39.5821 -43.2551
lclavicle -1.99282e-014 -9.93923e-016
lhumerus -36.8774 15.4603 85.4864
lradius 30.7826
lwrist -18.3715
lhand -6.52054 12.3522
lfingers 7.12502
lthumb 19.3319 41.4112
rfemur -8.23239 4.02849 21.7367
rtibia 23.7891
rfoot -18.161 -5.47055
rtoes -7.89042
lfemur -7.14808 -2.45527 -19.7064
ltibia 25.0615
lfoot -26.4747 9.54485
ltoes -10.4445
658
root 45.0536 17.7951 12.2352 -42.6683 89.0944 -44.3186
lowerback -3.19398 -1.70023 3.91749
upperback -1.45732 -2.35666 -1.09865
thorax 0.0862339 -1.19573 -3.39761
lowerneck -3.75344 3.30348 -1.87667
upperneck 9.97731 4.59059 0.869339
head 3.84196 2.27658 0.822405
rclavicle -2.30963e-014 -3.37934e-015
rhumerus -32.2118 -6.10858 -92.7103
rradius 25.9206
rwrist 33.8884
rhand 14.7484 -17.8281
rfingers 7.12502
rthumb 39.6148 -43.1692
lclavicle -2.30963e-014 -3.37934e-015
lhumerus -36.7989 15.2577 85.6176
lradius 30.72
lwrist -18.3652
lhand -6.47735 12.3533
lfingers 7.12502
lthumb 19.3734 41.4082
rfemur -8.20049 4.11838 21.719
rtibia 23.6522
rfoot -18.1189 -5.63059
rtoes -7.91093
lfemur -7.26538 -2.45513 -19.7223
ltibia 25.2115
lfoot -26.5498 9.46854
ltoes -10.4061
659
root 45.059 17.7867 12.2626 -64.5082 88.439 -65.8755
lowerback -3.01921 -1.68136 4.31131
upperback -1.34496 -2.34054 -0.794492
thorax 0.102066 -1.18682 -3.30086
lowerneck -3.76556 3.36545 -1.9531
upperneck 10.0545 4.67459 0.947023
head 3.86661 2.31882 0.866694
rclavicle 4.01172e-014 1.11319e-014
rhumerus -32.1949 -6.23017 -92.6793
rradius 25.9046
rwrist 34.0271
rhand 14.813 -17.7357
rfingers 7.12502
rthumb 39.6756 -43.0588
lclavicle 4.01172e-014 1.11319e-014
lhumerus -36.7476 15.1283 85.7104
lradius 30.6413
lwrist -18.3775
lhand -6.52092 12.4176
lfingers 7.12502
lthumb 19.3315 41.4767
rfemur -7.70641 5.48342 22.801
rtibia 23.4467
rfoot -18.1167 -7.04343
rtoes -7.99291
lfemur -7.06387 -2.3465 -18.7622
ltibia 25.4231
lfoot -26.7002 9.33951
ltoes -10.4772
660
root 45.0588 17.7807 12.2684 -68.6715 88.3009 -69.9827
lowerback -2.92114 -1.64903 4.46142
upperback -1.39325 -2.29573 -0.745001
thorax -0.00266345 -1.16809 -3.32861
lowerneck -3.6666 3.40834 -1.96531
upperneck 10.1442 4.73125 0.989095
head 3.8767 2.34918 0.884326
rclavicle -7.20594e-015 -1.39149e-014
rhumerus -32.3085 -6.31135 -92.6653
rradius 25.9139
rwrist 33.9881
rhand 14.8566 -17.6837
rfingers 7.12502
rthumb 39.7166 -42.9947
lclavicle -7.20594e-015 -1.39149e-014
lhumerus -36.8131 15.0307 85.7451
lradius 30.5711
lwrist -18.4929
lhand -6.54025 12.4109
lfingers 7.12502
lthumb 19.3129 41.4719
rfemur -7.53811 5.91937 23.0442
rtibia 23.2823
rfoot -18.0716 -7.52255
rtoes -7.95486
lfemur -7.05231 -2.2697 -18.5555
ltibia 25.5859
lfoot -26.8419 9.28825
ltoes -10.5291
661
root 45.0564 17.7839 12.264 -70.9184 88.2872 -72.2072
lowerback -2.94254 -1.65849 4.57526
upperback -1.35153 -2.3136 -0.749468
thorax 0.0456937 -1.17586 -3.39911
lowerneck -3.80819 3.52166 -1.71236
upperneck 10.2355 4.88765 0.80129
head 3.94569 2.42696 0.790861
rclavicle -9.32424e-015 -1.07344e-014
rhumerus -32.2291 -6.26759 -92.7186
rradius 25.9066
rwrist 34.0785
rhand 14.9266 -17.6414
rfingers 7.12502
rthumb 39.7826 -42.9327
lclavicle -9.32424e-015 -1.07344e-014
lhumerus -36.7151 15.0281 85.771
lradius 30.5107
lwrist -18.5206
lhand -6.57953 12.4268
lfingers 7.12502
lthumb 19.2752 41.4916
rfemur -7.43194 5.8249 23.0659
rtibia 23.1082
rfoot -17.9913 -7.46858
rtoes -7.91566
lfemur -7.13678 -2.23608 -18.5191
ltibia 25.7554
lfoot -26.9118 9.15268
ltoes -10.3975
662
root 45.054 17.7859 12.2621 -72.2643 88.4341 -73.572
lowerback -2.9984 -1.69291 4.42002
upperback -1.32949 -2.35858 -0.746919
thorax 0.102186 -1.19592 -3.31281
lowerneck -3.77893 3.61343 -1.65993
upperneck 10.2192 5.01799 0.691022
head 3.93668 2.48877 0.74995
rclavicle 3.24454e-014 3.18055e-015
rhumerus -32.1514 -6.12318 -92.7639
rradius 25.91
rwrist 34.0691
rhand 14.8505 -17.6465
rfingers 7.12502
rthumb 39.7109 -42.9591
lclavicle 3.24454e-014 3.18055e-015
lhumerus -36.6337 15.0449 85.8714
lradius 30.4881
lwrist -18.472
lhand -6.65226 12.5063
lfingers 7.12502
lthumb 19.2052 41.578
rfemur -7.45589 5.893 22.9087
rtibia 23.0961
rfoot -18.0196 -7.56431
rtoes -7.77346
lfemur -7.17989 -2.38252 -18.6754
ltibia 25.77
lfoot -26.9075 9.19263
ltoes -10.328
663
root 45.0519 17.7865 12.2624 -74.6603 88.4672 -75.9578
lowerback -3.02838 -1.71694 4.36278
upperback -1.30175 -2.39136 -0.713785
thorax 0.148477 -1.21043 -3.24897
lowerneck -3.83648 3.68429 -1.68222
upperneck 10.2829 5.11644 0.702304
head 3.96845 2.53682 0.764706
rclavicle -2.13445e-014 7.95139e-016
rhumerus -32.0887 -5.96616 -92.8214
rradius 25.919
rwrist 33.9204
rhand 14.7762 -17.7059
rfingers 7.12502
rthumb 39.641 -43.0392
lclavicle -2.13445e-014 7.95139e-016
lhumerus -36.5695 14.9286 86.0236
lradius 30.4726
lwrist -18.3569
lhand -6.84272 12.5451
lfingers 7.12502
lthumb 19.0221 41.6349
rfemur -7.44306 5.9192 22.9079
rtibia 23.1191
rfoot -18.0416 -7.69557
rtoes -7.96184
lfemur -7.18391 -2.34998 -18.6861
ltibia 25.7531
lfoot -26.9022 9.11181
ltoes -10.4821
664
root 45.05 17.7859 12.2621 -77.1786 88.4916 -78.4677
lowerback -3.00155 -1.72026 4.37313
upperback -1.32687 -2.39411 -0.700827
thorax 0.107485 -1.21309 -3.23996
lowerneck -3.81623 3.72249 -1.77572
upperneck 10.3413 5.16856 0.784796
head 3.97966 2.56306 0.811046
rclavicle -9.7653e-015 3.97569e-016
rhumerus -32.1116 -5.97914 -92.8058
rradius 25.9108
rwrist 33.9493
rhand 14.7345 -17.6434
rfingers 7.12502
rthumb 39.6017 -42.9883
lclavicle -9.7653e-015 3.97569e-016
lhumerus -36.6049 14.847 86.1078
lradius 30.4936
lwrist -18.4654
lhand -6.79643 12.6178
lfingers 7.12502
lthumb 19.0666 41.7033
rfemur -7.451 5.96183 22.9081
rtibia 23.18
rfoot -18.0695 -7.83451
rtoes -8.04389
lfemur -7.16436 -2.32947 -18.6902
ltibia 25.6991
lfoot -26.8667 9.00031
ltoes -10.5355
665
root 45.0489 17.7814 12.2612 -78.4643 88.5382 -79.7501
lowerback -3.06122 -1.7183 4.35532
upperback -1.32378 -2.39362 -0.716736
thorax 0.144157 -1.21186 -3.24859
lowerneck -3.77357 3.79028 -1.66229
upperneck 10.3817 5.25909 0.720144
head 3.98936 2.60969 0.773709
rclavicle 3.9701e-014 1.59028e-014
rhumerus -32.1224 -5.9785 -92.8365
rradius 25.8743
rwrist 34.1743
rhand 14.6597 -17.4649
rfingers 7.12502
rthumb 39.5312 -42.8306
lclavicle 3.9701e-014 1.59028e-014
lhumerus -36.6201 14.7333 86.1756
lradius 30.5266
lwrist -18.512
lhand -6.6354 12.506
lfingers 7.12502
lthumb 19.2215 41.5762
rfemur -7.4672 6.01661 22.8662
rtibia 23.2307
rfoot -18.1091 -7.93777
rtoes -8.01667
lfemur -7.1159 -2.27876 -18.7432
ltibia 25.6575
lfoot -26.8817 8.97738
ltoes -10.4994
666
root 45.0483 17.7807 12.2593 -79.3463 88.5313 -80.624
lowerback -3.07336 -1.71435 4.4092
upperback -1.30303 -2.39105 -0.713443
thorax 0.170364 -1.20988 -3.27625
lowerneck -3.80157 3.87409 -1.52115
upperneck 10.4002 5.37378 0.607007
head 4.0074 2.66656 0.718242
rclavicle -5.1976e-014 -3.97569e-016
rhumerus -32.0595 -5.90599 -92.8836
rradius 25.8955
rwrist 34.1409
rhand 14.7999 -17.5425
rfingers 7.12502
rthumb 39.6633 -42.8693
lclavicle -5.1976e-014 -3.97569e-016
lhumerus -36.5973 14.5324 86.3247
lradius 30.6281
lwrist -18.3541
lhand -6.82964 12.5027
lfingers 7.12502
lthumb 19.0347 41.5913
rfemur -7.4762 6.08298 22.8669
rtibia 23.2607
rfoot -18.1662 -7.97416
rtoes -7.87701
lfemur -7.10243 -2.26253 -18.7375
ltibia 25.6404
lfoot -26.8808 8.93679
ltoes -10.4566
